<svg width="138" height="32" viewBox="0 0 138 32" fill="none" xmlns="http://www.w3.org/2000/svg">
<path d="M78.8104 9.77776C77.6237 7.79796 75.9665 6.26261 73.8796 5.1515C71.7928 4.04039 69.4399 3.47473 66.8211 3.47473C64.6114 3.47473 62.5859 3.87877 60.7446 4.68685L63.3225 7.61615C63.5475 7.85857 63.9977 7.99998 64.325 7.93938C64.325 7.93938 65.7163 7.59594 66.8211 7.59594C68.5192 7.59594 70.0537 7.97978 71.4245 8.72726C72.7953 9.49493 73.8592 10.5454 74.6366 11.899C75.4141 13.2525 75.8028 14.7879 75.8028 16.4646C75.8028 17.3535 75.5982 18.404 75.5982 18.404C75.5369 18.7273 75.2914 18.7879 75.0868 18.5454L75.0254 18.4646C74.8003 18.2222 74.3707 17.899 74.0638 17.7576C74.0638 17.7576 73.5932 17.5555 73.184 17.9192C72.7544 18.2828 72.8976 18.7677 72.8976 18.7677C72.9999 19.0909 73.2454 19.5555 73.4704 19.798L74.207 20.6464C74.7594 21.2323 74.5548 21.8384 74.1456 22.0404C73.8796 22.1818 73.45 22.2424 73.2249 22L72.2224 20.8485C71.9974 20.606 71.5677 20.2828 71.2608 20.1414C71.2608 20.1414 70.7902 19.9394 70.381 20.303C69.9719 20.6667 70.0946 21.1515 70.0946 21.1515C70.1969 21.4747 70.4424 21.9596 70.647 22.2222L71.5268 23.3939C71.7314 23.6566 71.6905 24.0808 71.4859 24.2828C71.2813 24.4848 70.6675 24.303 70.422 24.0808L69.4808 23.2121C69.2353 22.9899 68.7852 22.6869 68.4783 22.5454C68.4783 22.5454 68.0077 22.3434 67.5985 22.7071C67.1893 23.0707 67.3121 23.5555 67.3121 23.5555C67.4144 23.8788 67.6599 24.3434 67.885 24.5858L68.0691 24.7879C68.2942 25.0303 68.1919 25.2727 67.8645 25.3131C67.8645 25.3131 67.3939 25.3737 66.8211 25.3737C65.1229 25.3737 63.5885 24.9899 62.2177 24.2424C60.8469 23.4747 59.783 22.4242 59.0055 21.0707C58.228 19.7172 57.8393 18.1818 57.8393 16.505C57.8393 14.8283 58.76 12.5252 58.76 12.5252C58.8828 12.2222 58.8009 11.7576 58.5759 11.4949L55.8547 8.34342C55.4865 8.80806 55.1386 9.29291 54.8318 9.79796C53.6451 11.7778 53.0313 14 53.0313 16.4646C53.0313 18.9091 53.6246 21.1313 54.8318 23.1313C56.0184 25.1111 57.6756 26.6667 59.7625 27.7778C61.8494 28.8889 64.2023 29.4545 66.8211 29.4545C69.4194 29.4545 71.7723 28.8889 73.8796 27.7778C75.9665 26.6667 77.6237 25.1111 78.8104 23.1515C79.9971 21.1717 80.6108 18.9495 80.6108 16.4848C80.5904 13.9798 79.9971 11.7576 78.8104 9.77776Z" fill="#85C441"/>
<path d="M7.57005 28.6061C5.72869 28.0607 4.27606 27.3132 3.21216 26.4041L4.84893 22.7677C5.89236 23.5758 7.18132 24.2627 8.69533 24.7677C10.2093 25.293 11.7438 25.5354 13.2783 25.5354C15.181 25.5354 16.5927 25.2324 17.5339 24.6263C18.475 24.0202 18.9456 23.2324 18.9456 22.2425C18.9456 21.5152 18.6796 20.9293 18.1681 20.4647C17.6362 20 16.9815 19.6364 16.1835 19.3738C15.3856 19.1112 14.2808 18.8081 12.8895 18.4647C10.9459 18 9.3705 17.5556 8.16338 17.091C6.95626 16.6263 5.91282 15.9192 5.05352 14.9495C4.19422 13.9798 3.76457 12.6667 3.76457 10.9899C3.76457 9.596 4.1533 8.32328 4.9103 7.19196C5.68777 6.04045 6.83351 5.15156 8.38843 4.46469C9.94336 3.79802 11.8256 3.45459 14.0762 3.45459C15.6311 3.45459 17.1656 3.65661 18.6796 4.04045C20.1936 4.42429 21.503 4.96974 22.5874 5.69701L21.0938 9.33338C19.9686 8.68691 18.8024 8.18186 17.5953 7.85863C16.3677 7.5152 15.2015 7.35358 14.0557 7.35358C12.1735 7.35358 10.7822 7.65661 9.88199 8.28287C8.9613 8.90914 8.51119 9.73742 8.51119 10.7677C8.51119 11.495 8.77717 12.0809 9.28866 12.5455C9.82061 13.0101 10.4753 13.3536 11.2732 13.6364C12.0712 13.899 13.176 14.2021 14.5672 14.5455C16.47 14.9697 18.0249 15.4344 19.2525 15.899C20.4801 16.3637 21.503 17.091 22.3828 18.0405C23.2421 19.0101 23.6718 20.3031 23.6718 21.9394C23.6718 23.3334 23.283 24.6061 22.526 25.7374C21.7485 26.8687 20.6028 27.7778 19.0274 28.4445C17.4725 29.1112 15.5698 29.4546 13.3192 29.4546C11.3142 29.4546 9.41141 29.1718 7.57005 28.6061Z" fill="#3B3B3C"/>
<path d="M44.6633 4.90909C46.3001 5.63636 47.5686 6.66666 48.4483 8.0202C49.3281 9.37373 49.7577 10.9697 49.7577 12.8283C49.7577 14.6465 49.3281 16.2424 48.4483 17.6162C47.5686 18.9697 46.3205 20.0202 44.6633 20.7273C43.0265 21.4545 41.0829 21.8182 38.8732 21.8182H33.1036V29.0909H28.357V3.83838H38.8732C41.0829 3.83838 43.0265 4.18181 44.6633 4.90909ZM43.3743 16.5252C44.4382 15.6566 44.9906 14.4242 44.9906 12.8081C44.9906 11.1919 44.4587 9.95959 43.3743 9.0909C42.3104 8.22222 40.7351 7.79797 38.6686 7.79797H33.1241V17.8182H38.6686C40.7146 17.8182 42.29 17.3939 43.3743 16.5252Z" fill="#3B3B3C"/>
<path d="M102.38 29.0909L97.1627 21.697C96.9376 21.7172 96.6103 21.7374 96.1806 21.7374H90.411V29.0909H85.6644V3.83838H96.1602C98.3698 3.83838 100.313 4.20202 101.95 4.92929C103.587 5.65656 104.855 6.68686 105.735 8.0404C106.615 9.39393 107.045 10.9899 107.045 12.8485C107.045 14.7475 106.574 16.3838 105.633 17.7576C104.692 19.1313 103.341 20.1414 101.602 20.8283L107.495 29.1313H102.38V29.0909ZM100.661 9.0909C99.5974 8.22222 98.022 7.79797 95.9556 7.79797H90.411V17.8586H95.9556C98.022 17.8586 99.5974 17.4141 100.661 16.5454C101.725 15.6768 102.278 14.4242 102.278 12.8081C102.257 11.1919 101.725 9.95959 100.661 9.0909Z" fill="#3B3B3C"/>
<path d="M121.162 18.505L117.09 22.6263V29.0909H112.344V3.83838H117.09V16.7879L129.734 3.83838H135.074L124.333 15.1313L135.729 29.0909H130.184L121.162 18.505Z" fill="#3B3B3C"/>
</svg>

